<?xml version="1.0" encoding="UTF-8" standalone="no"?>
<!-- Generator: Adobe Illustrator 20.1.0, SVG Export Plug-In . SVG Version: 6.00 Build 0)  -->

<svg
   xmlns:dc="http://purl.org/dc/elements/1.1/"
   xmlns:cc="http://creativecommons.org/ns#"
   xmlns:rdf="http://www.w3.org/1999/02/22-rdf-syntax-ns#"
   xmlns:svg="http://www.w3.org/2000/svg"
   xmlns="http://www.w3.org/2000/svg"
   xmlns:sodipodi="http://sodipodi.sourceforge.net/DTD/sodipodi-0.dtd"
   xmlns:inkscape="http://www.inkscape.org/namespaces/inkscape"
   version="1.1"
   id="Calque_1"
   x="0px"
   y="0px"
   viewBox="0 0 800 440"
   xml:space="preserve"
   inkscape:version="0.91 r13725"
   sodipodi:docname="icon_txttableur.svg"
   width="800"
   height="440"
   inkscape:export-filename="/home/presidence/flimpens/src/cn_app/EDX_NOGIT/icon_txttableur_export.png"
   inkscape:export-xdpi="90"
   inkscape:export-ydpi="90"><metadata
     id="metadata17"><rdf:RDF><cc:Work
         rdf:about=""><dc:format>image/svg+xml</dc:format><dc:type
           rdf:resource="http://purl.org/dc/dcmitype/StillImage" /><dc:title></dc:title></cc:Work></rdf:RDF></metadata><defs
     id="defs15" /><sodipodi:namedview
     pagecolor="#ffffff"
     bordercolor="#666666"
     borderopacity="1"
     objecttolerance="10"
     gridtolerance="10"
     guidetolerance="10"
     inkscape:pageopacity="0"
     inkscape:pageshadow="2"
     inkscape:window-width="1859"
     inkscape:window-height="979"
     id="namedview13"
     showgrid="false"
     inkscape:zoom="1.0703116"
     inkscape:cx="395.97101"
     inkscape:cy="282.03307"
     inkscape:window-x="0"
     inkscape:window-y="0"
     inkscape:window-maximized="0"
     inkscape:current-layer="Calque_1" /><style
     type="text/css"
     id="style3">
	.st0{fill:#0F6E96;}
	.st1{fill:#C94B24;}
	.st2{fill:#AFA715;}
</style><g
     id="g5"
     transform="matrix(0.53727338,0,0,0.53727338,184.79514,4.419072)"><polygon
       class="st0"
       points="271,29 30,29 30,477 222,477 222,455.3 222,392 108,392 108,107 229,107 229,200 315,200 315,271 400,271 400,159 "
       id="polygon7"
       style="fill:#0f6e96" /></g><path
     class="st1"
     d="m 540.52385,302.8744 c -32.34386,0 -58.5628,26.21895 -58.5628,58.56277 0,32.34385 26.21894,58.56283 58.5628,58.56283 32.34385,0 58.56281,-26.21898 58.56281,-58.56283 l -58.56281,0 0,-58.56277 z"
     id="path9"
     inkscape:connector-curvature="0"
     style="fill:#c94b24" /><path
     class="st2"
     d="m 484.0564,287.56213 80.05371,0 0,53.72734 34.38552,0 0,-168.1666 -271.323,0 0,186.97116 135.6615,0 c 0,-18.80456 5.64139,-39.22096 21.22227,-52.0618 l 0,-20.4701 z m 0,-76.29284 80.05371,0 0,38.1464 -80.05371,0 0,-38.1464 z m -38.68362,114.43922 -80.05378,0 0,-38.14638 80.05378,0 0,38.14638 z m 0,-76.29282 -80.05378,0 0,-38.1464 80.05378,0 0,38.1464 z"
     id="path11"
     inkscape:connector-curvature="0"
     style="fill:#afa715" /></svg>